<svg width="3737" height="3738" viewBox="0 0 3737 3738" fill="none" xmlns="http://www.w3.org/2000/svg">
<path d="M3485.9 2803.04C3321.96 3087 3086.17 3322.81 2802.22 3486.76C2518.27 3650.72 2196.17 3737.06 1868.29 3737.09L1868.09 1869L3485.9 2803.04Z" fill="#ED1B24"/>
<path d="M1868.09 3737.09C1540.21 3737.09 1218.1 3650.79 934.131 3486.86C650.166 3322.94 414.348 3087.16 250.377 2803.22L1868.09 1869L1868.09 3737.09Z" fill="#662C93"/>
<path d="M250.276 2803.04C86.3334 2519.09 0.0168696 2196.98 2.47248e-06 1869.1C-0.0168647 1541.21 86.2665 1219.1 250.18 935.123L1868.09 1869L250.276 2803.04Z" fill="#1BBAB5"/>
<path d="M250.277 934.954C414.22 650.997 650.013 415.191 933.961 251.233C1217.91 87.2754 1540.01 0.94134 1867.9 0.906738L1868.09 1869L250.277 934.954Z" fill="#F46523"/>
<path d="M1868.09 0.908983C2195.98 0.908677 2518.09 87.2085 2802.05 251.136C3086.02 415.064 3321.84 650.844 3485.81 934.784L1868.09 1869L1868.09 0.908983Z" fill="#AED376"/>
<path d="M3485.91 934.955C3649.85 1218.91 3736.17 1541.02 3736.19 1868.9C3736.2 2196.79 3649.92 2518.9 3486.01 2802.88L1868.09 1869L3485.91 934.955Z" fill="#C69C6C"/>
</svg>
